<svg xmlns="http://www.w3.org/2000/svg">
    <symbol id="heart" viewBox="0 0 512 512">
        <path d="M47.6 300.4L228.3 469.1c7.5 7 17.4 10.9 27.7 10.9s20.2-3.9 27.7-10.9L464.4 300.4c30.4-28.3 47.6-68 47.6-109.5v-5.8c0-69.9-50.5-129.5-119.4-141C347 36.5 300.6 51.4 268 84L256 96 244 84c-32.6-32.6-79-47.5-124.6-39.9C50.5 55.6 0 115.2 0 185.1v5.8c0 41.5 17.2 81.2 47.6 109.5z"/>
    </symbol>
    <symbol id="plus" viewBox="0 0 448 512">
        <path d="M256 80c0-17.7-14.3-32-32-32s-32 14.3-32 32l0 144L48 224c-17.7 0-32 14.3-32 32s14.3 32 32 32l144 0 0 144c0 17.7 14.3 32 32 32s32-14.3 32-32l0-144 144 0c17.7 0 32-14.3 32-32s-14.3-32-32-32l-144 0 0-144z"/>
    </symbol>
    <symbol id="location" viewBox="0 0 384 512">
        <path d="M215.7 499.2C267 435 384 279.4 384 192C384 86 298 0 192 0S0 86 0 192c0 87.4 117 243 168.3 307.2c12.3 15.3 35.1 15.3 47.4 0zM192 128a64 64 0 1 1 0 128 64 64 0 1 1 0-128z"/>
    </symbol>
    <symbol id="phone" viewBox="0 0 512 512">
        <path d="M164.9 24.6c-7.7-18.6-28-28.5-47.4-23.2l-88 24C12.1 30.2 0 46 0 64C0 311.4 200.6 512 448 512c18 0 33.8-12.1 38.6-29.5l24-88c5.3-19.4-4.6-39.7-23.2-47.4l-96-40c-16.3-6.8-35.2-2.1-46.3 11.6L304.7 368C234.3 334.7 177.3 277.7 144 207.3L193.3 167c13.7-11.2 18.4-30 11.6-46.3l-40-96z"/>
    </symbol>
    <symbol id="envelope" viewBox="0 0 512 512">
        <path d="M48 64C21.5 64 0 85.5 0 112c0 15.1 7.1 29.3 19.2 38.4L236.8 313.6c11.4 8.5 27 8.5 38.4 0L492.8 150.4c12.1-9.1 19.2-23.3 19.2-38.4c0-26.5-21.5-48-48-48L48 64zM0 176L0 384c0 35.3 28.7 64 64 64l384 0c35.3 0 64-28.7 64-64l0-208L294.4 339.2c-22.8 17.1-54 17.1-76.8 0L0 176z"/>
    </symbol>
    <symbol id="desktop" viewBox="0 0 576 512">
        <path d="M64 0C28.7 0 0 28.7 0 64v288c0 35.3 28.7 64 64 64h176l-10.7 32H160c-17.7 0-32 14.3-32 32s14.3 32 32 32h256c17.7 0 32-14.3 32-32s-14.3-32-32-32h-69.3L336 416h176c35.3 0 64-28.7 64-64V64c0-35.3-28.7-64-64-64H64zm448 64v224H64V64h448z"/>
    </symbol>
    <symbol id="talk" viewBox="0 0 640 512">
        <path d="M208 352c114.9 0 208-78.8 208-176S322.9 0 208 0S0 78.8 0 176c0 38.6 14.7 74.3 39.6 103.4c-3.5 9.4-8.7 17.7-14.2 24.7c-4.8 6.2-9.7 11-13.3 14.3c-1.8 1.6-3.3 2.9-4.3 3.7c-.5 .4-.9 .7-1.1 .8l-.2 .2s0 0 0 0s0 0 0 0C1 327.2-1.4 334.4 .8 340.9S9.1 352 16 352c21.8 0 43.8-5.6 62.1-12.5c9.2-3.5 17.8-7.4 25.2-11.4C134.1 343.3 169.8 352 208 352zM448 176c0 112.3-99.1 196.9-216.5 207C255.8 457.4 336.4 512 432 512c38.2 0 73.9-8.7 104.7-23.9c7.5 4 16 7.9 25.2 11.4c18.3 6.9 40.3 12.5 62.1 12.5c6.9 0 13.1-4.5 15.2-11.1c2.1-6.6-.2-13.8-5.8-17.9c0 0 0 0 0 0s0 0 0 0l-.2-.2c-.2-.2-.6-.4-1.1-.8c-1-.8-2.5-2-4.3-3.7c-3.6-3.3-8.5-8.1-13.3-14.3c-5.5-7-10.7-15.4-14.2-24.7c24.9-29 39.6-64.7 39.6-103.4c0-92.8-84.9-168.9-192.6-175.5c.4 5.1 .6 10.3 .6 15.5z"/>
    </symbol>
    <symbol id="nav_right" viewBox="0 0 320 512">
        <path d="M310.6 233.4c12.5 12.5 12.5 32.8 0 45.3l-192 192c-12.5 12.5-32.8 12.5-45.3 0s-12.5-32.8 0-45.3L242.7 256 73.4 86.6c-12.5-12.5-12.5-32.8 0-45.3s32.8-12.5 45.3 0l192 192z"/>
    </symbol>
    <symbol id="nav_left" viewBox="0 0 320 512">
        <path d="M9.4 233.4c-12.5 12.5-12.5 32.8 0 45.3l192 192c12.5 12.5 32.8 12.5 45.3 0s12.5-32.8 0-45.3L77.3 256 246.6 86.6c12.5-12.5 12.5-32.8 0-45.3s-32.8-12.5-45.3 0l-192 192z"/>
    </symbol>
    <symbol id="times" viewBox="0 0 352 512">
        <path d="M242.7 256l100.1-100.1c12.5-12.5 12.5-32.8 0-45.3s-32.8-12.5-45.3 0L197.4 210.7 97.4 110.6c-12.5-12.5-32.8-12.5-45.3 0s-12.5 32.8 0 45.3l100.1 100.1L52.1 356.1c-12.5 12.5-12.5 32.8 0 45.3s32.8 12.5 45.3 0l100.1-100.1 100.1 100.1c12.5 12.5 32.8 12.5 45.3 0s12.5-32.8 0-45.3L242.7 256z"/>
    </symbol>
    <symbol id="xing" viewBox="0 0 384 512">
        <path d="M162.7 210c-1.8 3.3-25.2 44.4-70.1 123.5-4.9 8.3-10.8 12.5-17.7 12.5H9.8c-7.7 0-12.1-7.5-8.5-14.4l69-121.3c.2 0 .2-.1 0-.3l-43.9-75.6c-4.3-7.8 .3-14.1 8.5-14.1H100c7.3 0 13.3 4.1 18 12.2l44.7 77.5zM382.6 46.1l-144 253v.3L330.2 466c3.9 7.1 .2 14.1-8.5 14.1h-65.2c-7.6 0-13.6-4-18-12.2l-92.4-168.5c3.3-5.8 51.5-90.8 144.8-255.2 4.6-8.1 10.4-12.2 17.5-12.2h65.7c8 0 12.3 6.7 8.5 14.1z"/>
    </symbol>
    <symbol id="linkedin" viewBox="0 0 448 512">
        <path d="M100.3 448H7.4V148.9h92.9zM53.8 108.1C24.1 108.1 0 83.5 0 53.8a53.8 53.8 0 0 1 107.6 0c0 29.7-24.1 54.3-53.8 54.3zM447.9 448h-92.7V302.4c0-34.7-.7-79.2-48.3-79.2-48.3 0-55.7 37.7-55.7 76.7V448h-92.8V148.9h89.1v40.8h1.3c12.4-23.5 42.7-48.3 87.9-48.3 94 0 111.3 61.9 111.3 142.3V448z"/>
    </symbol>
</svg>
